Coordinates
version=1
nRows=4
nColumns=107
inDegrees=yes

Units are S.I. units (second, meters, Newtons, ...)
If the header above contains a line with 'inDegrees', this indicates whether rotational values are in degrees (yes) or radians (no).

endheader
time	sternoclavicular_r2	sternoclavicular_r3	unrotscap_r3	unrotscap_r2	acromioclavicular_r2	acromioclavicular_r3	acromioclavicular_r1	unrothum_r1	unrothum_r3	unrothum_r2	elv_angle	shoulder_elv	shoulder1_r2	shoulder_rot	elbow_flexion	pro_sup	deviation	flexion	proximal_distal_r1	proximal_distal_r3	cmc_flexion	cmc_abduction	mp_flexion	ip_flexion	mcp2_flexion	mcp2_abduction	pm2_flexion	md2_flexion	mcp3_flexion	mcp3_abduction	pm3_flexion	md3_flexion	mcp4_flexion	mcp4_abduction	pm4_flexion	md4_flexion	mcp5_flexion	mcp5_abduction	pm5_flexion	md5_flexion	bicpt_tx	bicpt_ty	bicpt_tz	bicpt2_tx	bicpt2_ty	bicpt2_tz	ptpt_tx	ptpt_ty	ptpt_tz	FCUpt_tx	FCUpt_ty	FCUpt_tz	EDCpt_tx	EDCpt_ty	EDCpt_tz	APLpt_tx	APLpt_ty	APLpt_tz	FPLpt_tx	FPLpt_ty	FPLpt_tz	FPLpt2_tx	FPLpt2_ty	FPLpt2_tz	PEC1pt2_tx	PEC1pt2_ty	PEC1pt2_tz	PEC1pt3_tx	PEC1pt3_ty	PEC1pt3_tz	PEC2pt2_tx	PEC2pt2_ty	PEC2pt2_tz	PEC2pt3_tx	PEC2pt3_ty	PEC2pt3_tz	PEC3pt2_tx	PEC3pt2_ty	PEC3pt2_tz	PEC3pt3_tx	PEC3pt3_ty	PEC3pt3_tz	DELT2pt2a_tx	DELT2pt2a_ty	DELT2pt2a_tz	DELT2pt2_tx	DELT2pt2_ty	DELT2pt2_tz	LAT1pt2_tx	LAT1pt2_ty	LAT1pt2_tz	LAT1pt3_tx	LAT1pt3_ty	LAT1pt3_tz	LAT2pt2_tx	LAT2pt2_ty	LAT2pt2_tz	LAT2pt3_tx	LAT2pt3_ty	LAT2pt3_tz	LAT3pt2_tx	LAT3pt2_ty	LAT3pt2_tz	LAT3pt3_tx	LAT3pt3_ty	LAT3pt3_tz
      0.00000000	     -0.31552786	      0.13364271	     -0.13364271	      0.31552786	     -0.06388797	      0.51632013	      0.23208235	     -0.23208235	     -0.51632013	      0.06388797	     99.96414900	     74.70402629	     -1.74470353	    -28.96608993	     29.08787517	     12.65808298	     -0.07998576	     -0.97885286	     -0.11378820	     -0.48942643	    -12.35826140	      8.20587163	    -28.15706973	      6.94939434	     30.43373133	     13.42868431	      8.65811010	    -30.15623962	     54.73805291	      9.95375768	     85.68977341	     65.76546725	     46.88581820	     -5.71970306	     91.45425099	     63.10328099	      2.38306208	    -10.54798241	     -9.41320378	      4.93278207	      0.00086214	     -0.03093392	     -0.00483701	      0.01566819	     -0.01810186	     -0.00986473	      0.00661471	     -0.06550477	     -0.00106968	      0.00514285	     -0.18395770	      0.00008917	     -0.00151897	      0.00038337	      0.00014012	      0.00019910	      0.00007964	      0.00039820	      0.00025484	      0.00076453	      0.00043005	     -0.00208917	      0.00039381	      0.00047257	      0.00244863	      0.00859097	      0.00597633	     -0.00800994	      0.01934006	     -0.01834400	      0.00244863	      0.00859097	      0.00597633	      0.00053953	      0.01792898	     -0.00942102	      0.00389217	      0.00477733	      0.01582969	      0.00000000	      0.00746145	      0.00000000	     -0.00701388	     -0.03241327	     -0.00615046	      0.01841254	     -0.00072196	     -0.00700195	     -0.00087155	      0.01460880	     -0.00597633	      0.00240713	      0.02108315	     -0.01743095	     -0.00585182	      0.01265819	     -0.00535379	     -0.01220167	      0.02672746	     -0.02992314	     -0.02290925	      0.01415227	     -0.00717989	     -0.01518983	      0.03087769	     -0.03739355
      0.03333333	     -0.31540620	      0.13359118	     -0.13359118	      0.31540620	     -0.06386334	      0.51612105	      0.23199286	     -0.23199286	     -0.51612105	      0.06386334	    100.09691162	     74.67522253	     -1.74702068	    -29.40102287	     28.99561132	     12.83395623	     -0.08422344	     -0.99174534	     -0.12010921	     -0.49587267	    -12.30216487	      7.80821780	    -27.97464111	      6.63649489	     30.61116378	     13.37859206	      8.94346458	    -31.35637783	     54.97431324	      9.69728446	     85.71335620	     66.67876750	     47.32490795	     -5.09665517	     92.21343709	     60.23951968	      2.95688685	    -10.34486937	    -10.78892761	      4.93842106	      0.00085908	     -0.03092334	     -0.00483530	      0.01567948	     -0.01807680	     -0.00985268	      0.00660172	     -0.06551318	     -0.00108384	      0.00515908	     -0.18395541	      0.00008431	     -0.00154007	      0.00038905	      0.00014146	      0.00019101	      0.00007640	      0.00038202	      0.00024449	      0.00073348	      0.00041258	     -0.00206880	      0.00039163	      0.00046996	      0.00244769	      0.00858766	      0.00597402	     -0.00800685	      0.01933260	     -0.01833693	      0.00244769	      0.00858766	      0.00597402	      0.00053932	      0.01792207	     -0.00941738	      0.00389106	      0.00477549	      0.01582692	      0.00000000	      0.00745566	      0.00000000	     -0.00701118	     -0.03240078	     -0.00614565	      0.01861009	     -0.00073670	     -0.00720936	     -0.00087121	      0.01460317	     -0.00597402	      0.00240620	      0.02107503	     -0.01742423	     -0.00584956	      0.01265331	     -0.00535173	     -0.01219696	      0.02671716	     -0.02991160	     -0.02290042	      0.01414682	     -0.00717712	     -0.01518397	      0.03086578	     -0.03737913
      0.06666667	     -0.31553174	      0.13364435	     -0.13364435	      0.31553174	     -0.06388876	      0.51632647	      0.23208520	     -0.23208520	     -0.51632647	      0.06388876	    100.12838505	     74.70494329	     -1.74756999	    -29.38613167	     28.93929808	     12.69950864	     -0.08267477	     -0.99824176	     -0.11779553	     -0.49912088	    -12.26099068	      7.52519205	    -28.00671769	      7.15080600	     30.71615369	     13.32822064	      9.10943572	    -31.38780934	     55.39610863	      9.53857831	     85.78508264	     67.72136815	     47.56316232	     -4.65831643	     92.27540867	     58.31626265	      3.50233855	    -10.25373407	    -11.72550639	      4.94305861	      0.00085722	     -0.03091689	     -0.00483426	      0.01567085	     -0.01806150	     -0.00986190	      0.00661165	     -0.06550675	     -0.00107301	      0.00514668	     -0.18395716	      0.00008802	     -0.00152394	      0.00038471	      0.00014044	      0.00018683	      0.00007473	      0.00037367	      0.00023915	      0.00071744	      0.00040356	     -0.00205391	      0.00039004	      0.00046805	      0.00244866	      0.00859108	      0.00597640	     -0.00801004	      0.01934030	     -0.01834423	      0.00244866	      0.00859108	      0.00597640	      0.00053954	      0.01792920	     -0.00942113	      0.00389220	      0.00477739	      0.01582978	      0.00000000	      0.00746163	      0.00000000	     -0.00701397	     -0.03241367	     -0.00615062	      0.01860337	     -0.00073620	     -0.00720222	     -0.00087156	      0.01460898	     -0.00597640	      0.00240716	      0.02108341	     -0.01743117	     -0.00585189	      0.01265835	     -0.00535386	     -0.01220182	      0.02672779	     -0.02992351	     -0.02290954	      0.01415245	     -0.00717998	     -0.01519002	      0.03087807	     -0.03739401
      0.10000000	     -0.31565652	      0.13369720	     -0.13369720	      0.31565652	     -0.06391402	      0.51653066	      0.23217698	     -0.23217698	     -0.51653066	      0.06391402	    100.11920846	     74.73448697	     -1.74740983	    -29.39737884	     28.94073526	     12.69623669	     -0.08265504	     -0.99826656	     -0.11776643	     -0.49913328	    -12.26061254	      7.52429347	    -28.00654212	      7.15086117	     30.71426849	     13.32767117	      9.10937148	    -31.38806974	     55.39563471	      9.53824884	     85.78529251	     67.72157442	     47.56332927	     -4.65784788	     92.27543412	     58.31602250	      3.50170349	    -10.25385187	    -11.72585256	      4.94304768	      0.00085727	     -0.03091705	     -0.00483429	      0.01567064	     -0.01806189	     -0.00986212	      0.00661189	     -0.06550660	     -0.00107275	      0.00514637	     -0.18395721	      0.00008812	     -0.00152354	      0.00038460	      0.00014041	      0.00018682	      0.00007473	      0.00037363	      0.00023912	      0.00071737	      0.00040352	     -0.00205380	      0.00039003	      0.00046803	      0.00244963	      0.00859447	      0.00597876	     -0.00801320	      0.01934794	     -0.01835148	      0.00244963	      0.00859447	      0.00597876	      0.00053975	      0.01793629	     -0.00942486	      0.00389334	      0.00477928	      0.01583261	      0.00000000	      0.00746757	      0.00000000	     -0.00701674	     -0.03242649	     -0.00615555	      0.01860844	     -0.00073658	     -0.00720761	     -0.00087190	      0.01461476	     -0.00597876	      0.00240811	      0.02109175	     -0.01743806	     -0.00585421	      0.01266335	     -0.00535598	     -0.01220664	      0.02673836	     -0.02993534	     -0.02291860	      0.01415805	     -0.00718282	     -0.01519603	      0.03089028	     -0.03740879
